<svg xmlns="http://www.w3.org/2000/svg" width="36" height="36" viewBox="0 0 36 36">
    <g fill="none" fill-rule="evenodd">
        <g fill="#FFF">
            <g>
                <g>
                    <path d="M40.084 25.258c-8.097 0-14.66 6.562-14.66 14.658 0 2.812.79 5.434 2.16 7.664l.442.718-2.758 6.434 6.434-2.758.72.441c2.228 1.37 4.85 2.16 7.662 2.16 8.096 0 14.658-6.562 14.658-14.659 0-8.096-6.562-14.658-14.658-14.658zM22.167 39.916C22.167 30.022 30.19 22 40.084 22 49.978 22 58 30.022 58 39.916c0 9.895-8.022 17.917-17.916 17.917-3.124 0-6.066-.802-8.626-2.209l-4.906 2.103c-2.704 1.158-5.437-1.575-4.279-4.279l2.103-4.906c-1.407-2.56-2.209-5.502-2.209-8.626zm9.773-3.257c0-.9.73-1.629 1.629-1.629h4.886c.899 0 1.629.73 1.629 1.629s-.73 1.629-1.63 1.629H33.57c-.9 0-1.63-.73-1.63-1.63zm0 6.515c0-.9.73-1.629 1.629-1.629h13.03c.899 0 1.628.73 1.628 1.629s-.73 1.629-1.628 1.629h-13.03c-.9 0-1.63-.73-1.63-1.63z" transform="translate(-132 -162) translate(0 110) translate(110 30)"/>
                </g>
            </g>
        </g>
    </g>
</svg>
