<?xml version="1.0" encoding="UTF-8"?>
<svg width="72px" height="72px" viewBox="0 0 72 72" version="1.1" xmlns="http://www.w3.org/2000/svg" xmlns:xlink="http://www.w3.org/1999/xlink">
    <title>61E66CF6-E6E6-4CF5-A9BA-9654B38CDB04</title>
    <g id="Over-Ons" stroke="none" stroke-width="1" fill="none" fill-rule="evenodd">
        <g id="dots_pattern" fill="#FFFFFF">
            <path d="M66,63 C67.6568542,63 69,64.3431458 69,66 C69,67.6568542 67.6568542,69 66,69 C64.3431458,69 63,67.6568542 63,66 C63,64.3431458 64.3431458,63 66,63 Z M54,63 C55.6568542,63 57,64.3431458 57,66 C57,67.6568542 55.6568542,69 54,69 C52.3431458,69 51,67.6568542 51,66 C51,64.3431458 52.3431458,63 54,63 Z M42,63 C43.6568542,63 45,64.3431458 45,66 C45,67.6568542 43.6568542,69 42,69 C40.3431458,69 39,67.6568542 39,66 C39,64.3431458 40.3431458,63 42,63 Z M30,63 C31.6568542,63 33,64.3431458 33,66 C33,67.6568542 31.6568542,69 30,69 C28.3431458,69 27,67.6568542 27,66 C27,64.3431458 28.3431458,63 30,63 Z M18,63 C19.6568542,63 21,64.3431458 21,66 C21,67.6568542 19.6568542,69 18,69 C16.3431458,69 15,67.6568542 15,66 C15,64.3431458 16.3431458,63 18,63 Z M6,63 C7.65685425,63 9,64.3431458 9,66 C9,67.6568542 7.65685425,69 6,69 C4.34314575,69 3,67.6568542 3,66 C3,64.3431458 4.34314575,63 6,63 Z M54,51 C55.6568542,51 57,52.3431458 57,54 C57,55.6568542 55.6568542,57 54,57 C52.3431458,57 51,55.6568542 51,54 C51,52.3431458 52.3431458,51 54,51 Z M42,51 C43.6568542,51 45,52.3431458 45,54 C45,55.6568542 43.6568542,57 42,57 C40.3431458,57 39,55.6568542 39,54 C39,52.3431458 40.3431458,51 42,51 Z M30,51 C31.6568542,51 33,52.3431458 33,54 C33,55.6568542 31.6568542,57 30,57 C28.3431458,57 27,55.6568542 27,54 C27,52.3431458 28.3431458,51 30,51 Z M18,51 C19.6568542,51 21,52.3431458 21,54 C21,55.6568542 19.6568542,57 18,57 C16.3431458,57 15,55.6568542 15,54 C15,52.3431458 16.3431458,51 18,51 Z M66,51 C67.6568542,51 69,52.3431458 69,54 C69,55.6568542 67.6568542,57 66,57 C64.3431458,57 63,55.6568542 63,54 C63,52.3431458 64.3431458,51 66,51 Z M6,51 C7.65685425,51 9,52.3431458 9,54 C9,55.6568542 7.65685425,57 6,57 C4.34314575,57 3,55.6568542 3,54 C3,52.3431458 4.34314575,51 6,51 Z M66,39 C67.6568542,39 69,40.3431458 69,42 C69,43.6568542 67.6568542,45 66,45 C64.3431458,45 63,43.6568542 63,42 C63,40.3431458 64.3431458,39 66,39 Z M54,39 C55.6568542,39 57,40.3431458 57,42 C57,43.6568542 55.6568542,45 54,45 C52.3431458,45 51,43.6568542 51,42 C51,40.3431458 52.3431458,39 54,39 Z M42,39 C43.6568542,39 45,40.3431458 45,42 C45,43.6568542 43.6568542,45 42,45 C40.3431458,45 39,43.6568542 39,42 C39,40.3431458 40.3431458,39 42,39 Z M30,39 C31.6568542,39 33,40.3431458 33,42 C33,43.6568542 31.6568542,45 30,45 C28.3431458,45 27,43.6568542 27,42 C27,40.3431458 28.3431458,39 30,39 Z M18,39 C19.6568542,39 21,40.3431458 21,42 C21,43.6568542 19.6568542,45 18,45 C16.3431458,45 15,43.6568542 15,42 C15,40.3431458 16.3431458,39 18,39 Z M6,39 C7.65685425,39 9,40.3431458 9,42 C9,43.6568542 7.65685425,45 6,45 C4.34314575,45 3,43.6568542 3,42 C3,40.3431458 4.34314575,39 6,39 Z M42,27 C43.6568542,27 45,28.3431458 45,30 C45,31.6568542 43.6568542,33 42,33 C40.3431458,33 39,31.6568542 39,30 C39,28.3431458 40.3431458,27 42,27 Z M30,27 C31.6568542,27 33,28.3431458 33,30 C33,31.6568542 31.6568542,33 30,33 C28.3431458,33 27,31.6568542 27,30 C27,28.3431458 28.3431458,27 30,27 Z M18,27 C19.6568542,27 21,28.3431458 21,30 C21,31.6568542 19.6568542,33 18,33 C16.3431458,33 15,31.6568542 15,30 C15,28.3431458 16.3431458,27 18,27 Z M66,27 C67.6568542,27 69,28.3431458 69,30 C69,31.6568542 67.6568542,33 66,33 C64.3431458,33 63,31.6568542 63,30 C63,28.3431458 64.3431458,27 66,27 Z M54,27 C55.6568542,27 57,28.3431458 57,30 C57,31.6568542 55.6568542,33 54,33 C52.3431458,33 51,31.6568542 51,30 C51,28.3431458 52.3431458,27 54,27 Z M6,27 C7.65685425,27 9,28.3431458 9,30 C9,31.6568542 7.65685425,33 6,33 C4.34314575,33 3,31.6568542 3,30 C3,28.3431458 4.34314575,27 6,27 Z M66,15 C67.6568542,15 69,16.3431458 69,18 C69,19.6568542 67.6568542,21 66,21 C64.3431458,21 63,19.6568542 63,18 C63,16.3431458 64.3431458,15 66,15 Z M54,15 C55.6568542,15 57,16.3431458 57,18 C57,19.6568542 55.6568542,21 54,21 C52.3431458,21 51,19.6568542 51,18 C51,16.3431458 52.3431458,15 54,15 Z M42,15 C43.6568542,15 45,16.3431458 45,18 C45,19.6568542 43.6568542,21 42,21 C40.3431458,21 39,19.6568542 39,18 C39,16.3431458 40.3431458,15 42,15 Z M30,15 C31.6568542,15 33,16.3431458 33,18 C33,19.6568542 31.6568542,21 30,21 C28.3431458,21 27,19.6568542 27,18 C27,16.3431458 28.3431458,15 30,15 Z M18,15 C19.6568542,15 21,16.3431458 21,18 C21,19.6568542 19.6568542,21 18,21 C16.3431458,21 15,19.6568542 15,18 C15,16.3431458 16.3431458,15 18,15 Z M6,15 C7.65685425,15 9,16.3431458 9,18 C9,19.6568542 7.65685425,21 6,21 C4.34314575,21 3,19.6568542 3,18 C3,16.3431458 4.34314575,15 6,15 Z M66,3 C67.6568542,3 69,4.34314575 69,6 C69,7.65685425 67.6568542,9 66,9 C64.3431458,9 63,7.65685425 63,6 C63,4.34314575 64.3431458,3 66,3 Z M54,3 C55.6568542,3 57,4.34314575 57,6 C57,7.65685425 55.6568542,9 54,9 C52.3431458,9 51,7.65685425 51,6 C51,4.34314575 52.3431458,3 54,3 Z M42,3 C43.6568542,3 45,4.34314575 45,6 C45,7.65685425 43.6568542,9 42,9 C40.3431458,9 39,7.65685425 39,6 C39,4.34314575 40.3431458,3 42,3 Z M30,3 C31.6568542,3 33,4.34314575 33,6 C33,7.65685425 31.6568542,9 30,9 C28.3431458,9 27,7.65685425 27,6 C27,4.34314575 28.3431458,3 30,3 Z M18,3 C19.6568542,3 21,4.34314575 21,6 C21,7.65685425 19.6568542,9 18,9 C16.3431458,9 15,7.65685425 15,6 C15,4.34314575 16.3431458,3 18,3 Z M6,3 C7.65685425,3 9,4.34314575 9,6 C9,7.65685425 7.65685425,9 6,9 C4.34314575,9 3,7.65685425 3,6 C3,4.34314575 4.34314575,3 6,3 Z" id="Combined-Shape"></path>
        </g>
    </g>
</svg>