<svg xmlns="http://www.w3.org/2000/svg" width="23" height="36" viewBox="0 0 23 36">
    <g fill="none" fill-rule="evenodd">
        <g fill="#FD0066">
            <g>
                <g>
                    <path d="M42.49 23.045c2.142-2.41 6.075-.307 5.262 2.813l-2.65 10.152 4.387 1.755c1.974.79 2.566 3.298 1.155 4.887L37.928 56.955c-2.141 2.41-6.074.307-5.261-2.813l2.649-10.152-4.386-1.755c-1.974-.788-2.566-3.298-1.155-4.887L42.49 23.045zm2.292 2.039L32.07 39.386l6.898 2.76-3.33 12.77L48.35 40.614l-6.898-2.76 3.33-12.77z" transform="translate(-1099 -162) translate(0 110) translate(990 30) translate(80)"/>
                </g>
            </g>
        </g>
    </g>
</svg>
