<svg xmlns="http://www.w3.org/2000/svg" width="34" height="36" viewBox="0 0 34 36">
    <g fill="none" fill-rule="evenodd">
        <g fill="#FD5A00">
            <g>
                <g>
                    <path d="M40.491 25.258c-.457-.25-1.012-.25-1.47 0l-12.95 7.064 12.95 7.064c.458.25 1.013.25 1.47 0l12.95-7.064-12.95-7.064zm-2.942-2.695c1.376-.75 3.038-.75 4.413 0l12.949 7.062c2.134 1.164 2.134 4.23 0 5.393l-2.095 1.143 2.095 1.142c2.134 1.164 2.134 4.23 0 5.394l-2.095 1.142 2.095 1.143c2.134 1.163 2.134 4.229 0 5.393l-12.949 7.062c-1.375.75-3.037.75-4.413 0l-12.948-7.062c-2.135-1.164-2.135-4.23 0-5.393l2.094-1.143-2.094-1.142c-2.135-1.164-2.135-4.23 0-5.394l2.094-1.142-2.094-1.143c-2.135-1.163-2.135-4.229 0-5.393l12.948-7.062zM29.902 37.91L26.07 40l12.95 7.064c.46.25 1.014.25 1.471 0L53.441 40l-3.831-2.09-7.648 4.17c-1.375.752-3.037.752-4.413 0l-7.647-4.17zm0 7.678l-3.832 2.09 12.95 7.064c.46.25 1.014.25 1.471 0l12.95-7.064-3.831-2.09-7.648 4.17c-1.375.752-3.037.752-4.413 0l-7.647-4.17z" transform="translate(-773 -162) translate(0 110) translate(670 30) translate(80)"/>
                </g>
            </g>
        </g>
    </g>
</svg>
