<svg xmlns="http://www.w3.org/2000/svg" width="17" height="17" viewBox="0 0 17 17">
    <g fill="none" fill-rule="evenodd">
        <g fill="#1C1C1C">
            <g>
                <path d="M2.258 23.552c-.452 0-.738.352-.703.697.69 6.965 6.231 12.506 13.196 13.196.345.035.697-.251.697-.703V33.98c0-.334-.213-.63-.53-.736l-2.685-.895c-.279-.093-.586-.02-.794.187l-.43.43c-.513.514-1.333.612-1.953.188-1.468-1.004-2.322-1.853-3.233-3.225-.412-.62-.305-1.426.2-1.93l.44-.44c.208-.207.28-.514.187-.793l-.895-2.685c-.106-.317-.402-.53-.736-.53H2.26zm-2.247.85C-.124 23.042.996 22 2.258 22H5.02c1.002 0 1.891.64 2.208 1.591l.895 2.685c.279.836.062 1.759-.562 2.382l-.432.432c.783 1.176 1.488 1.882 2.79 2.775l.424-.425c.623-.624 1.546-.84 2.382-.562l2.685.895c.95.317 1.591 1.206 1.591 2.208v2.76c0 1.263-1.041 2.383-2.402 2.248C6.898 38.226.774 32.103.01 24.402zm10.782-1.626c0-.428.347-.776.776-.776 3 0 5.431 2.432 5.431 5.431 0 .429-.348.776-.776.776-.428 0-.776-.347-.776-.776 0-2.142-1.737-3.88-3.88-3.88-.428 0-.775-.347-.775-.775zm0 3.103c0-.428.347-.775.776-.775 1.285 0 2.327 1.042 2.327 2.327 0 .429-.347.776-.775.776-.429 0-.776-.347-.776-.776 0-.428-.348-.776-.776-.776-.429 0-.776-.347-.776-.776z" transform="translate(-1110 -22) translate(1110)"/>
            </g>
        </g>
    </g>
</svg>
