<svg xmlns="http://www.w3.org/2000/svg" width="38" height="36" viewBox="0 0 38 36">
    <g fill="none" fill-rule="evenodd">
        <g fill="#32BC00" fill-rule="nonzero">
            <g>
                <g>
                    <path d="M40.259 22c9.941 0 18 8.059 18 18s-8.059 18-18 18c-.765 0-1.385-.62-1.385-1.385 0-.764.62-1.384 1.385-1.384 8.412 0 15.23-6.82 15.23-15.231 0-8.412-6.818-15.23-15.23-15.23S25.029 31.587 25.029 40c0 3.778 1.382 7.329 3.803 10.071v-4.869c0-.764.62-1.384 1.385-1.384s1.385.62 1.385 1.384v7.833c0 .765-.62 1.385-1.385 1.385h-7.832c-.765 0-1.385-.62-1.385-1.385s.62-1.385 1.385-1.385h4.152c-2.726-3.205-4.278-7.302-4.278-11.65 0-9.941 8.059-18 18-18zm0 8.863c.765 0 1.385.62 1.385 1.384v9.026l4.496 4.496c.541.541.541 1.418 0 1.959-.54.54-1.417.54-1.958 0l-4.902-4.903c-.26-.26-.406-.612-.406-.979v-9.599c0-.764.62-1.384 1.385-1.384z" transform="translate(-451 -162) translate(0 110) translate(350 30) translate(80)"/>
                </g>
            </g>
        </g>
    </g>
</svg>
